<svg width="149" height="50" viewBox="0 0 149 50" fill="none" xmlns="http://www.w3.org/2000/svg">
<path d="M59.6428 20.158H62.0509V30.3178H59.6841L59.5602 28.8339C58.9868 30.0299 57.3964 30.6067 56.2622 30.6274C53.2533 30.648 51.0276 28.7927 51.0276 25.2276C51.0276 21.7244 53.3566 19.8897 56.3242 19.9103C57.6842 19.9103 58.9834 20.5502 59.5602 21.5593L59.6428 20.158V20.158ZM53.5458 25.2275C53.5458 27.1655 54.8851 28.3236 56.5547 28.3236C60.512 28.3236 60.512 22.1612 56.5547 22.1612C54.8817 22.1543 53.5458 23.2907 53.5458 25.2275Z" fill="#1A1A1A"/>
<path d="M65.8464 15.9128V30.3177H63.3523V15.9128H65.8464Z" fill="#1A1A1A"/>
<path d="M70.7716 17.2935V20.1785H73.5741V22.3424H70.7464V26.732C70.7464 27.7009 71.2819 28.1745 72.065 28.1745C72.488 28.1624 72.9039 28.0566 73.2818 27.8659L73.9825 30.0091C73.3225 30.2834 72.6154 30.4312 71.9013 30.4415C69.6962 30.524 68.2526 29.2673 68.2526 26.7319L68.2523 22.3424H66.3613V20.1785H68.2569V17.5607L70.7716 17.2935Z" fill="#1A1A1A"/>
<path d="M76.7688 26.1346C76.934 27.396 78.0302 28.2984 79.7984 28.2984C80.7261 28.2984 81.9416 27.9544 82.5184 27.3501L84.1238 28.9371C83.0528 30.0506 81.3006 30.5861 79.7548 30.5861C76.2517 30.5861 74.1704 28.4223 74.1704 25.1656C74.1704 22.0695 76.2723 19.8484 79.5691 19.8484C82.9702 19.8484 85.0928 21.9515 84.7006 26.1346H76.7688V26.1346ZM82.2925 24.0533C82.1273 22.7346 81.0965 22.0741 79.6551 22.0741C78.2951 22.0741 77.1828 22.7346 76.8112 24.0533H82.2925Z" fill="#1A1A1A"/>
<path d="M88.1454 20.158L88.3311 21.3322C89.1143 20.0709 90.1658 19.8896 91.1979 19.8896C92.2494 19.8896 93.262 20.3025 93.8158 20.8586L92.6817 23.043C92.1668 22.6107 91.6921 22.3836 90.8676 22.3836C89.5489 22.3836 88.3334 23.0843 88.3334 24.9603V30.3176L85.8164 30.3177V20.1579H88.1454V20.158Z" fill="#1A1A1A"/>
<path d="M101.417 30.3178V25.0017C101.417 23.4559 100.573 22.2806 98.9657 22.2806C97.4199 22.2806 96.3684 23.5786 96.3684 25.1244V30.3178H93.8755V20.1373H96.1219L96.2859 21.5134C97.3179 20.5043 98.35 19.9883 99.6251 19.9883C102.016 19.9883 103.932 21.7817 103.932 24.9764V30.3132L101.417 30.3178L101.417 30.3178Z" fill="#1A1A1A"/>
<path d="M113.33 20.158H115.738V30.3178H113.369L113.246 28.8339C112.672 30.0299 111.082 30.6067 109.948 30.6274C106.939 30.648 104.713 28.7927 104.713 25.2276C104.713 21.7244 107.042 19.8897 110.01 19.9103C111.37 19.9103 112.669 20.5502 113.246 21.5593L113.33 20.158V20.158ZM107.23 25.2275C107.23 27.1655 108.569 28.3236 110.239 28.3236C114.196 28.3236 114.196 22.1612 110.239 22.1612C108.569 22.1543 107.23 23.2907 107.23 25.2275Z" fill="#1A1A1A"/>
<path d="M120.152 17.2935V20.1785H122.955V22.3424H120.131V26.732C120.131 27.7009 120.667 28.1745 121.45 28.1745C121.873 28.1624 122.289 28.0566 122.667 27.8659L123.368 30.0091C122.708 30.2839 121.999 30.4311 121.285 30.4414C119.08 30.524 117.638 29.2672 117.638 26.7319L117.637 22.3424H115.742V20.1785H117.637V17.5607L120.152 17.2935Z" fill="#1A1A1A"/>
<path d="M126.747 17.2935C126.747 19.2509 123.779 19.2509 123.779 17.2935C123.779 15.3361 126.747 15.3361 126.747 17.2935ZM124.006 20.1167V30.3224H126.52V20.1167H124.006Z" fill="#1A1A1A"/>
<path d="M138.494 20.1374L134.166 30.3591L131.446 30.3591L127.098 20.1373L129.838 20.1374L131.24 23.4972L132.806 27.7836L134.352 23.5408L135.753 20.1408L138.494 20.1374Z" fill="#1A1A1A"/>
<path d="M141.029 26.1346C141.194 27.396 142.29 28.2984 144.059 28.2984C144.986 28.2984 146.202 27.9544 146.78 27.3501L148.385 28.9371C147.314 30.0506 145.562 30.5861 144.016 30.5861C140.513 30.5861 138.432 28.4223 138.432 25.1656C138.432 22.0695 140.534 19.8484 143.83 19.8484C147.232 19.8484 149.354 21.9515 148.963 26.1346H141.029V26.1346ZM146.553 24.0533C146.388 22.7346 145.357 22.0741 143.915 22.0741C142.555 22.0741 141.443 22.7346 141.071 24.0533H146.553Z" fill="#1A1A1A"/>
<path d="M53.5412 31.8366V37.4635C54.1386 36.412 55.8082 35.8351 56.8804 35.8351C59.8481 35.8351 62.0532 37.6492 62.0532 41.1524C62.0532 44.4904 59.8068 46.4696 56.8185 46.4696C55.5812 46.4696 54.3244 46.0568 53.5412 44.8413L53.3761 46.2426L51.0276 46.2426V31.8365H53.5412V31.8366ZM53.7063 41.1524C53.7063 42.9871 55.0663 44.1407 56.6533 44.1407C58.2587 44.1407 59.5384 42.9252 59.5384 41.1524C59.5384 39.3176 58.261 38.1847 56.6533 38.1847C55.0663 38.1847 53.7063 39.3796 53.7063 41.1524Z" fill="#1A1A1A"/>
<path d="M71.9708 36.0829H74.3789V46.2427H72.0167L71.8928 44.7589C71.3194 45.9549 69.729 46.5317 68.596 46.5523C65.587 46.5729 63.3613 44.7176 63.3613 41.1525C63.3613 37.6493 65.6891 35.8146 68.6568 35.8353C70.0179 35.8353 71.316 36.474 71.8928 37.4842L71.9708 36.0829V36.0829ZM65.8703 41.1524C65.8703 43.0892 67.2097 44.2486 68.8793 44.2486C72.8366 44.2486 72.8366 38.0861 68.8793 38.0861C67.2097 38.0816 65.8703 39.2168 65.8703 41.1524Z" fill="#1A1A1A"/>
<path d="M83.452 46.2426V40.9254C83.452 39.3796 82.6068 38.2054 81.0003 38.2054C79.4545 38.2054 78.403 39.5035 78.403 41.0492V46.2427L75.9089 46.2426V36.0622H78.1565L78.3204 37.4382C79.3525 36.428 80.3845 35.9131 81.6597 35.9131C84.0505 35.9131 85.9667 37.7065 85.9667 40.9001V46.238L83.452 46.2426L83.452 46.2426Z" fill="#1A1A1A"/>
<path d="M89.9057 31.8365V40.1628L93.3275 36.0828H96.3364V36.2273L92.1933 40.8634L96.9132 46.0569V46.2426H93.8836L89.9057 41.6466V46.2426H87.3921V31.8365H89.9057Z" fill="#1A1A1A"/>
<path d="M55.4378 1.40125V4.28637H58.2404V6.4502H55.4184V10.8398C55.4184 11.8087 55.9539 12.2824 56.7371 12.2824C57.1597 12.2708 57.5758 12.1648 57.9528 11.9737L58.6521 14.1147C57.993 14.3902 57.2846 14.5373 56.5707 14.5469C54.3656 14.6295 52.9231 13.3727 52.9231 10.8373L52.9231 6.4502H51.0276V4.28637H52.9231V1.66961L55.4378 1.40125Z" fill="#1A1A1A"/>
<path d="M61.5991 4.16385e-05V5.64642C62.5062 4.47222 63.6196 4.12129 64.7732 4.12129C67.6583 4.12129 68.9369 6.07988 68.9369 9.06815V14.4267H66.4267V9.0888C66.4267 7.23343 65.4578 6.45142 64.1184 6.45142C62.6346 6.45142 61.6037 7.71277 61.6037 9.23445V14.4278H59.0879V0H61.5992L61.5991 4.16385e-05Z" fill="#1A1A1A"/>
<path d="M72.1728 10.2424C72.3368 11.5037 73.4342 12.4062 75.2013 12.4062C76.129 12.4062 77.3456 12.0622 77.9224 11.459L79.5278 13.0449C78.4556 14.1584 76.7035 14.6939 75.1589 14.6939C71.6545 14.6939 69.5732 12.5301 69.5732 9.27342C69.5732 6.18302 71.6752 3.95728 74.9731 3.95728C78.3731 3.95728 80.4956 6.05923 80.1046 10.2424L72.1728 10.2424V10.2424ZM77.6954 8.16109C77.5302 6.8424 76.5005 6.18298 75.0579 6.18298C73.6968 6.18298 72.5845 6.8424 72.2141 8.16109H77.6954Z" fill="#1A1A1A"/>
<path d="M6.63372 22.1624L0.494629 28.1687L4.63133 20.6177L12.7434 9.80865L17.7981 7.99121L6.63372 22.1624Z" fill="#B89B45"/>
<path d="M6.61393 32.3808L0 38.8816L4.53713 30.9278L23.1444 6.06944L28.9197 3.99255L6.61393 32.3808Z" fill="#B89B45"/>
<path d="M11.7723 35.9888L2.4668 45.8643L9.56374 34.446L33.7255 2.26426L39.8948 0.0838623L11.7723 35.9888Z" fill="#B89B45"/>
<path d="M39.9331 10.1467L16.869 39.554L7.45752 49.5709L14.6597 38.0091L39.9331 4.34253V10.1467Z" fill="#B89B45"/>
<path d="M39.933 20.0705L21.9015 43.0745L14.9636 50L19.8144 41.615L39.933 14.7151V20.0705Z" fill="#B89B45"/>
<path d="M39.9331 29.9326L31.5717 40.5638L25.3748 46.6124L29.5485 39.0702L39.9331 25.2029V29.9326Z" fill="#B89B45"/>
</svg>
