<svg width="41" height="40" viewBox="0 0 41 40" fill="none" xmlns="http://www.w3.org/2000/svg">
<mask id="mask0_305_1584" style="mask-type:alpha" maskUnits="userSpaceOnUse" x="0" y="0" width="41" height="40">
<rect x="0.5" width="40" height="40" fill="#D9D9D9"/>
</mask>
<g mask="url(#mask0_305_1584)">
<path d="M12.1666 35L9.83329 32.6666L12.4583 29.9166C9.51385 29.5833 7.06246 28.3125 5.10413 26.1041C3.14579 23.8958 2.16663 21.3055 2.16663 18.3333C2.16663 15.0833 3.29857 12.3263 5.56246 10.0625C7.82635 7.79857 10.5833 6.66663 13.8333 6.66663H18.8333V9.99996H13.8333C11.5277 9.99996 9.56246 10.8125 7.93746 12.4375C6.31246 14.0625 5.49996 16.0277 5.49996 18.3333C5.49996 20.3333 6.13885 22.0972 7.41663 23.625C8.6944 25.1527 10.3194 26.1111 12.2916 26.5L9.83329 24.0416L12.1666 21.6666L18.8333 28.3333L12.1666 35ZM22.1666 33.3333V21.6666H37.1666V33.3333H22.1666ZM22.1666 18.3333V6.66663H37.1666V18.3333H22.1666ZM25.5 15H33.8333V9.99996H25.5V15Z" fill="#304DAF"/>
</g>
</svg>
